<svg xmlns="http://www.w3.org/2000/svg" viewBox="0 0 56 56"><defs><style>.cls-1{fill:#e74b5a;}</style></defs><g id="Layer_2" data-name="Layer 2"><g id="Layer_3" data-name="Layer 3"><path class="cls-1" d="M28,0c-7.6,0-8.55,0-11.54.17a20.68,20.68,0,0,0-6.8,1.3,13.74,13.74,0,0,0-5,3.23,13.74,13.74,0,0,0-3.23,5,20.41,20.41,0,0,0-1.3,6.79C0,19.44,0,20.39,0,28s0,8.56.17,11.54a20.68,20.68,0,0,0,1.3,6.8,13.78,13.78,0,0,0,3.23,5,13.57,13.57,0,0,0,5,3.23,20.41,20.41,0,0,0,6.79,1.3c3,.13,3.94.17,11.55.17s8.55,0,11.54-.17a20.73,20.73,0,0,0,6.8-1.3,14.32,14.32,0,0,0,8.19-8.19,20.73,20.73,0,0,0,1.3-6.8C56,36.56,56,35.61,56,28s0-8.56-.17-11.55a20.72,20.72,0,0,0-1.3-6.79,13.74,13.74,0,0,0-3.23-5,13.61,13.61,0,0,0-5-3.23,20.53,20.53,0,0,0-6.8-1.3C36.55,0,35.6,0,28,0ZM25.49,5.05H28c7.48,0,8.37,0,11.32.16a15.52,15.52,0,0,1,5.2,1,8.77,8.77,0,0,1,3.22,2.1,8.67,8.67,0,0,1,2.09,3.22,15.38,15.38,0,0,1,1,5.19c.14,3,.17,3.84.17,11.31s0,8.36-.17,11.32a15.38,15.38,0,0,1-1,5.19,9.28,9.28,0,0,1-5.32,5.31,15.31,15.31,0,0,1-5.19,1c-3,.13-3.84.16-11.32.16s-8.36,0-11.31-.16a15.45,15.45,0,0,1-5.2-1,8.62,8.62,0,0,1-3.22-2.09,8.65,8.65,0,0,1-2.1-3.22,15.46,15.46,0,0,1-1-5.2c-.13-2.95-.16-3.83-.16-11.31s0-8.36.16-11.31a15.46,15.46,0,0,1,1-5.2,8.69,8.69,0,0,1,2.1-3.22,8.69,8.69,0,0,1,3.22-2.1,15.52,15.52,0,0,1,5.2-1c2.58-.12,3.58-.16,8.8-.16ZM43,9.69a3.37,3.37,0,0,0,0,6.73h0a3.37,3.37,0,0,0,0-6.73ZM28,13.62a14.38,14.38,0,0,0-.45,28.76H28a14.38,14.38,0,0,0,0-28.76Zm0,5.05a9.33,9.33,0,1,1,0,18.66h0a9.33,9.33,0,0,1,0-18.66Z"/></g></g></svg>