<svg xmlns="http://www.w3.org/2000/svg" viewBox="0 0 199.33 199.33"><defs><style>.cls-1{fill:#e4f5fd;}.cls-2{fill:#21508e;}.cls-3{fill:#62aee0;}.cls-4{fill:#1f518e;}.cls-5{fill:#e74b5a;}</style></defs><g id="Layer_2" data-name="Layer 2"><g id="Layer_3" data-name="Layer 3"><rect class="cls-1" width="199.33" height="199.33" rx="28.35"/><polygon class="cls-2" points="85.96 57.49 72.25 57.49 72.25 43.78 85.96 57.49"/><polygon class="cls-3" points="99.66 57.49 85.96 57.49 99.66 43.78 99.66 57.49"/><polygon class="cls-2" points="113.37 57.49 99.66 57.49 99.66 43.78 113.37 57.49"/><polygon class="cls-3" points="127.08 57.49 113.37 57.49 127.08 43.78 127.08 57.49"/><rect class="cls-4" x="85.96" y="80.22" width="27.41" height="27.41"/><rect class="cls-3" x="85.96" y="107.63" width="27.41" height="27.41"/><polygon class="cls-4" points="99.67 137.27 127.08 155.55 99.67 155.55 99.67 137.27"/><polygon class="cls-3" points="127.08 155.55 99.67 137.27 127.08 137.27 127.08 155.55"/><polygon class="cls-4" points="72.25 155.55 72.25 137.27 99.67 137.27 72.25 155.55"/><polygon class="cls-3" points="99.67 137.27 99.67 155.55 72.25 155.55 99.67 137.27"/><polygon class="cls-2" points="72.25 59.72 99.66 77.99 72.25 77.99 72.25 59.72"/><polygon class="cls-3" points="99.66 77.99 72.25 59.72 99.67 59.72 99.66 77.99"/><polygon class="cls-4" points="127.08 59.72 127.08 77.99 99.66 77.99 127.08 59.72"/><polygon class="cls-5" points="99.66 77.99 99.67 59.72 127.08 59.72 99.66 77.99"/></g></g></svg>