<svg xmlns="http://www.w3.org/2000/svg" viewBox="0 0 55.75 56"><defs><style>.cls-1{fill:#e74b5a;}</style></defs><g id="Layer_2" data-name="Layer 2"><g id="Layer_3" data-name="Layer 3"><path class="cls-1" d="M47.6,8.14A27.47,27.47,0,0,0,28,0,27.77,27.77,0,0,0,3.92,41.62L0,56l14.71-3.86A27.7,27.7,0,0,0,28,55.52h0A27.74,27.74,0,0,0,47.6,8.14ZM28,50.82A23,23,0,0,1,16.23,47.6l-.84-.5L6.66,49.39,9,40.87,8.45,40A23.05,23.05,0,1,1,28,50.82ZM40.63,33.55c-.69-.34-4.09-2-4.73-2.26s-1.11-.34-1.56.35-1.8,2.26-2.2,2.71-.81.52-1.5.18a18.87,18.87,0,0,1-5.57-3.45,21,21,0,0,1-3.86-4.8c-.4-.69,0-1.07.3-1.41s.69-.81,1-1.21a4.29,4.29,0,0,0,.69-1.16,1.28,1.28,0,0,0,0-1.21c-.17-.35-1.56-3.77-2.14-5.15S19.92,15,19.49,15s-.86,0-1.33,0a2.57,2.57,0,0,0-1.85.86,7.78,7.78,0,0,0-2.42,5.79c0,3.42,2.49,6.71,2.84,7.17s4.88,7.46,11.84,10.47a37.55,37.55,0,0,0,4,1.47,9.57,9.57,0,0,0,4.36.28c1.33-.21,4.1-1.68,4.68-3.3a5.71,5.71,0,0,0,.4-3.3C41.79,34.07,41.32,33.9,40.63,33.55Z"/></g></g></svg>